#!OML:ASF F:\VICON\USERDATA\INSTALL\rory3\rory3.ASF
:FULLY-SPECIFIED
:DEGREES
885
root 1.73344 17.8133 8.92638 12.0681 92.9461 2.48335
lowerback 4.03763 2.96559 2.54176
upperback 1.80565 4.0941 1.59788
thorax -0.344514 2.0695 0.0459952
lowerneck -13.9323 5.75563 -3.94093
upperneck 39.0038 15.4701 -5.95687
head 16.8592 5.78559 1.07701
rclavicle -1.86858e-014 -5.56597e-015
rhumerus -32.389 -9.08925 -60.8964
rradius 38.9644
rwrist 17.402
rhand -27.035 0.914183
rfingers 7.12502
rthumb -0.45389 -29.0651
lclavicle -1.86858e-014 -5.56597e-015
lhumerus -37.5642 17.5221 76.8892
lradius 29.9448
lwrist -9.8063
lhand -10.9415 23.166
lfingers 7.12502
lthumb 15.0769 52.5969
rfemur -11.4908 -6.24884 20.4743
rtibia 27.1456
rfoot -34.6522 -23.96
rtoes 9.24237
lfemur -30.5058 1.82001 -16.4418
ltibia 23.7926
lfoot -4.75175 8.16258
ltoes -17.6798
886
root 1.80095 17.8018 8.90462 9.16655 93.5872 -0.283197
lowerback 4.08217 3.00264 2.28395
upperback 1.77208 4.13483 1.56294
thorax -0.418883 2.08736 0.147383
lowerneck -13.778 5.74715 -4.05206
upperneck 39.1017 15.4447 -5.7364
head 16.8309 5.80295 1.17953
rclavicle -1.55052e-014 -3.4191e-014
rhumerus -32.348 -8.95395 -60.744
rradius 39.3366
rwrist 16.8131
rhand -27.3344 0.466654
rfingers 7.12502
rthumb -0.74311 -29.5118
lclavicle -1.55052e-014 -3.4191e-014
lhumerus -37.6578 17.9251 76.7791
lradius 29.8382
lwrist -9.70081
lhand -10.3347 22.6404
lfingers 7.12502
lthumb 15.6613 52.0265
rfemur -10.9977 -6.30897 20.237
rtibia 27.275
rfoot -35.0887 -23.9371
rtoes 9.24261
lfemur -30.2429 1.61554 -16.7419
ltibia 23.3976
lfoot -4.05926 7.7947
ltoes -18.372
887
root 1.86405 17.7868 8.87653 6.52371 94.3107 -2.81743
lowerback 4.15932 3.00885 2.07554
upperback 1.73736 4.13739 1.53302
thorax -0.510095 2.08654 0.226106
lowerneck -13.6695 5.72877 -4.36036
upperneck 39.1296 15.4595 -5.53757
head 16.7649 5.80793 1.31239
rclavicle -1.61016e-014 -2.78299e-014
rhumerus -32.3767 -8.83967 -60.539
rradius 39.7763
rwrist 16.2229
rhand -27.6673 0.0738134
rfingers 7.12502
rthumb -1.06454 -29.9033
lclavicle -1.61016e-014 -2.78299e-014
lhumerus -37.6964 18.2618 76.7855
lradius 29.6811
lwrist -9.92075
lhand -9.8475 22.3294
lfingers 7.12502
lthumb 16.1305 51.6782
rfemur -10.5597 -6.74103 19.9421
rtibia 27.4256
rfoot -35.3658 -23.8308
rtoes 9.0065
lfemur -30.0145 1.06599 -17.0042
ltibia 23.2031
lfoot -3.01122 7.20234
ltoes -18.3341
888
root 1.92684 17.7801 8.84939 6.81163 95.0536 -2.42332
lowerback 4.22776 3.01693 1.9985
upperback 1.70881 4.14845 1.5521
thorax -0.58434 2.09113 0.282551
lowerneck -13.854 5.64851 -4.71346
upperneck 39.4889 15.4311 -5.15119
head 16.9215 5.78065 1.55226
rclavicle 4.75095e-014 8.74653e-015
rhumerus -32.4093 -8.97378 -60.2651
rradius 40.2092
rwrist 15.8447
rhand -27.5542 0.108529
rfingers 7.12502
rthumb -0.955392 -29.8691
lclavicle 4.75095e-014 8.74653e-015
lhumerus -37.6781 18.3894 76.9169
lradius 29.5724
lwrist -9.97863
lhand -9.64077 22.2976
lfingers 7.12502
lthumb 16.3296 51.6301
rfemur -10.1142 -6.78616 19.8605
rtibia 27.5414
rfoot -35.87 -23.7955
rtoes 9.04928
lfemur -29.7872 1.02977 -17.2388
ltibia 23.2989
lfoot -2.0644 6.1439
ltoes -16.3597
889
root 1.99343 17.7745 8.82814 7.97077 95.818 -1.25613
lowerback 4.17574 2.9332 1.79396
upperback 1.62725 4.03041 1.64755
thorax -0.661147 2.03054 0.498437
lowerneck -14.0062 5.65242 -4.96498
upperneck 39.8335 15.5434 -4.8697
head 17.0907 5.81199 1.75592
rclavicle 8.54774e-015 -1.66979e-014
rhumerus -32.2338 -8.86144 -60.164
rradius 40.4642
rwrist 15.5579
rhand -27.5607 0.172807
rfingers 7.12502
rthumb -0.961636 -29.8048
lclavicle 8.54774e-015 -1.66979e-014
lhumerus -37.7924 18.3652 77.0259
lradius 29.4696
lwrist -9.63114
lhand -10.0121 22.2081
lfingers 7.12502
lthumb 15.972 51.5697
rfemur -9.7378 -6.62062 19.9561
rtibia 27.5512
rfoot -36.3922 -24.0358
rtoes 8.87635
lfemur -29.7266 1.32151 -17.4732
ltibia 23.6978
lfoot -1.76815 4.88603
ltoes -13.4682
890
root 2.06386 17.7729 8.79938 11.5481 96.6859 2.04441
lowerback 3.76015 2.79006 1.9141
upperback 1.49664 3.83819 1.84826
thorax -0.569971 1.93518 0.663839
lowerneck -13.8358 5.73892 -5.00584
upperneck 39.7566 15.7412 -4.98621
head 17.024 5.89315 1.73728
rclavicle -8.5875e-014 -1.90833e-014
rhumerus -31.9962 -8.66034 -60.1107
rradius 40.8184
rwrist 15.1941
rhand -27.6486 0.250047
rfingers 7.12502
rthumb -1.04651 -29.7271
lclavicle -8.5875e-014 -1.90833e-014
lhumerus -37.8307 18.6857 77.0305
lradius 29.2316
lwrist -9.7247
lhand -9.69343 22.0618
lfingers 7.12502
lthumb 16.2788 51.3984
rfemur -9.82568 -6.90968 20.4018
rtibia 27.7976
rfoot -36.3895 -24.4234
rtoes 7.82911
lfemur -30.0143 1.42031 -17.3268
ltibia 24.07
lfoot -1.96444 4.09394
ltoes -10.3497
891
root 2.14106 17.7764 8.75626 14.1794 97.5672 4.36237
lowerback 3.14191 2.67709 2.13929
upperback 1.43129 3.68015 2.05025
thorax -0.291246 1.85927 0.782174
lowerneck -13.7234 5.79799 -5.0362
upperneck 39.7114 15.9337 -5.15024
head 16.9992 5.96376 1.70155
rclavicle -4.53229e-014 -6.36111e-015
rhumerus -31.7502 -8.5119 -59.9643
rradius 41.233
rwrist 14.6063
rhand -27.5433 0.262421
rfingers 7.12502
rthumb -0.944779 -29.7152
lclavicle -4.53229e-014 -6.36111e-015
lhumerus -37.794 18.9621 77.1659
lradius 29.0824
lwrist -10.0103
lhand -9.31669 22.0928
lfingers 7.12502
lthumb 16.6416 51.3994
rfemur -9.87972 -7.56958 20.7641
rtibia 27.9638
rfoot -36.1497 -24.6575
rtoes 6.54067
lfemur -30.392 1.6491 -17.317
ltibia 24.387
lfoot -2.27389 3.36801
ltoes -12.0279
892
root 2.14741 17.7597 8.75565 8.48833 98.7043 -0.969395
lowerback 4.5207 2.46743 1.17084
upperback 1.2619 3.40456 1.89474
thorax -1.28211 1.71363 1.09842
lowerneck -13.7797 5.77917 -5.00672
upperneck 39.9349 15.9344 -5.00402
head 17.1182 5.97986 1.77308
rclavicle 1.21259e-014 -1.82882e-014
rhumerus -31.7464 -8.53254 -60.1029
rradius 41.717
rwrist 13.9048
rhand -27.486 0.151521
rfingers 7.12502
rthumb -0.889447 -29.8264
lclavicle 1.21259e-014 -1.82882e-014
lhumerus -37.7209 18.8934 77.1884
lradius 28.9628
lwrist -10.1124
lhand -9.33601 22.242
lfingers 7.12502
lthumb 16.623 51.5501
rfemur -9.53077 -6.92162 20.2609
rtibia 28.3001
rfoot -37.6943 -25.3528
rtoes 8.24315
lfemur -30.4222 1.59818 -18.2902
ltibia 24.5572
lfoot -2.01944 2.40518
ltoes -13.7077
893
root 2.26425 17.7762 8.68441 3.93751 98.5485 -5.32547
lowerback 3.92583 2.72931 0.878118
upperback 1.46779 3.71093 1.40019
thorax -0.728221 1.86559 0.776472
lowerneck -13.8999 5.70325 -4.97487
upperneck 40.2962 15.77 -4.60161
head 17.2878 5.95173 1.9331
rclavicle 1.0138e-014 3.73715e-014
rhumerus -31.899 -8.98464 -60.39
rradius 42.1257
rwrist 13.4795
rhand -27.5809 0.360648
rfingers 7.12502
rthumb -0.981135 -29.6168
lclavicle 1.0138e-014 3.73715e-014
lhumerus -37.5463 18.7646 77.0236
lradius 28.733
lwrist -10.3534
lhand -9.29386 22.2366
lfingers 7.12502
lthumb 16.6636 51.5413
rfemur -8.88335 -7.94826 19.0174
rtibia 28.6377
rfoot -36.8228 -24.5062
rtoes 7.26355
lfemur -29.6146 1.54148 -19.2567
ltibia 24.5899
lfoot -2.17842 2.77781
ltoes -13.8493
894
root 2.3259 17.7771 8.64897 5.54979 99.1549 -3.26791
lowerback 4.29436 2.76579 1.18623
upperback 1.60772 3.77993 1.37563
thorax -0.769167 1.90238 0.561998
lowerneck -14.0196 5.59192 -5.14879
upperneck 40.5601 15.6029 -4.23999
head 17.3946 5.89359 2.10567
rclavicle -5.62561e-014 -8.74653e-015
rhumerus -31.8649 -9.66138 -60.4709
rradius 42.4515
rwrist 13.436
rhand -27.7172 0.66094
rfingers 7.12502
rthumb -1.11277 -29.3159
lclavicle -5.62561e-014 -8.74653e-015
lhumerus -37.1614 19.1703 76.9212
lradius 28.2851
lwrist -11.164
lhand -9.36382 22.1374
lfingers 7.12502
lthumb 16.5962 51.4478
rfemur -8.42624 -7.96682 19.2548
rtibia 29.2194
rfoot -37.2181 -24.8646
rtoes 7.06284
lfemur -29.0794 1.47343 -19.0901
ltibia 24.448
lfoot -1.82923 2.10423
ltoes -13.5451
895
root 2.39933 17.7794 8.60393 6.46529 99.6401 -2.2013
lowerback 4.1263 2.86535 1.18979
upperback 1.76113 3.91087 1.46542
thorax -0.524392 1.97044 0.660136
lowerneck -13.8257 5.54049 -5.22513
upperneck 40.3941 15.5065 -4.24707
head 17.2447 5.86931 2.07963
rclavicle 1.17283e-014 1.27222e-014
rhumerus -31.7729 -10.0421 -60.3756
rradius 42.8113
rwrist 13.0869
rhand -27.842 0.999429
rfingers 7.12502
rthumb -1.23335 -28.9768
lclavicle 1.17283e-014 1.27222e-014
lhumerus -36.7875 19.5807 77.1691
lradius 27.9206
lwrist -11.6306
lhand -9.55209 22.4282
lfingers 7.12502
lthumb 16.4149 51.7536
rfemur -8.28213 -8.50074 19.2741
rtibia 29.8737
rfoot -36.9755 -24.9332
rtoes 6.63
lfemur -28.7956 1.55149 -19.1395
ltibia 24.3646
lfoot -1.64385 1.28617
ltoes -13.8717
896
root 2.46547 17.7793 8.5581 5.92305 100.219 -2.78406
lowerback 4.00564 2.95313 0.97509
upperback 1.77714 4.01569 1.41998
thorax -0.452543 2.02193 0.735632
lowerneck -13.6173 5.46781 -4.94789
upperneck 40.2227 15.3859 -4.50812
head 17.1587 5.85284 1.88589
rclavicle 2.3059e-014 -1.43125e-014
rhumerus -31.911 -10.304 -60.3862
rradius 43.3665
rwrist 12.3966
rhand -27.9942 1.06898
rfingers 7.12502
rthumb -1.38031 -28.9063
lclavicle 2.3059e-014 -1.43125e-014
lhumerus -36.4635 19.6272 77.2926
lradius 27.5877
lwrist -11.9852
lhand -9.55752 22.5936
lfingers 7.12502
lthumb 16.4097 51.9195
rfemur -8.32967 -9.3016 19.0021
rtibia 30.4469
rfoot -36.5811 -24.9627
rtoes 6.60067
lfemur -28.7765 1.47325 -19.4802
ltibia 24.4841
lfoot -1.62745 0.558662
ltoes -13.858
897
root 2.46794 17.7657 8.54657 5.076 101.235 -3.57408
lowerback 5.09349 2.86988 0.545816
upperback 1.5226 3.90548 1.39277
thorax -1.34587 1.96318 0.881385
lowerneck -13.5657 5.36542 -4.95496
upperneck 40.3908 15.2434 -4.36283
head 17.2169 5.81697 1.9303
rclavicle 2.88238e-014 -2.46493e-014
rhumerus -32.1171 -10.7043 -60.4372
rradius 43.8671
rwrist 12.1121
rhand -27.9361 1.4927
rfingers 7.12502
rthumb -1.32424 -28.4829
lclavicle 2.88238e-014 -2.46493e-014
lhumerus -36.3046 19.916 77.2064
lradius 27.3536
lwrist -12.6342
lhand -9.42599 22.6813
lfingers 7.12502
lthumb 16.5363 51.9967
rfemur -8.66197 -9.20208 19.0441
rtibia 31.2109
rfoot -37.2971 -25.6495
rtoes 7.97331
lfemur -29.0226 1.18121 -19.7647
ltibia 24.5578
lfoot -1.26679 -0.137459
ltoes -13.6607
898
root 2.61157 17.7842 8.45606 7.31745 100.788 -1.02202
lowerback 4.01306 3.16776 1.11428
upperback 1.8759 4.30803 1.44337
thorax -0.348707 2.17024 0.673259
lowerneck -13.4943 5.34562 -5.09652
upperneck 40.5276 15.2262 -4.15095
head 17.2324 5.82332 2.04351
rclavicle -3.93594e-014 8.74653e-015
rhumerus -32.245 -10.8899 -60.594
rradius 44.4574
rwrist 11.9247
rhand -27.7693 1.57229
rfingers 7.12502
rthumb -1.16313 -28.4043
lclavicle -3.93594e-014 8.74653e-015
lhumerus -36.2801 20.3488 77.095
lradius 27.2299
lwrist -13.1556
lhand -9.10965 22.6199
lfingers 7.12502
lthumb 16.8409 51.9097
rfemur -8.13612 -10.0204 18.9078
rtibia 31.9143
rfoot -35.7397 -25.2116
rtoes 6.48199
lfemur -28.0051 1.46602 -19.461
ltibia 24.6617
lfoot -1.95659 0.285944
ltoes -13.9982
899
root 2.68911 17.7889 8.40218 6.14175 100.99 -2.06943
lowerback 3.88417 3.27005 0.796164
upperback 1.96754 4.42871 1.38448
thorax -0.202774 2.22942 0.795902
lowerneck -13.3923 5.30881 -5.27284
upperneck 40.6105 15.192 -3.97718
head 17.2129 5.81708 2.13891
rclavicle 1.49089e-014 2.38542e-014
rhumerus -32.3364 -10.8896 -60.8504
rradius 45.0837
rwrist 11.3454
rhand -27.8212 1.25201
rfingers 7.12502
rthumb -1.21321 -28.7243
lclavicle 1.49089e-014 2.38542e-014
lhumerus -36.173 20.3026 77.1532
lradius 27.1778
lwrist -13.24
lhand -8.77639 22.9312
lfingers 7.12502
lthumb 17.1617 52.1933
rfemur -8.11089 -10.4543 18.3974
rtibia 32.7867
rfoot -35.1541 -25.1409
rtoes 6.96571
lfemur -27.5842 1.85301 -19.9905
ltibia 24.7422
lfoot -2.35437 -0.308602
ltoes -14.3361
